<svg id="Capa_1" enable-background="new 0 0 512 512" height="512" viewBox="0 0 512 512" width="512" xmlns="http://www.w3.org/2000/svg"><circle cx="256" cy="256" fill="#ff475a" r="256"/><path d="m512 256c0-15.612-1.398-30.897-4.074-45.738l-134.232-134.232-12.426 77.844-59.965-59.965-206.674 267.577 150.278 150.278c3.678.156 7.376.236 11.093.236 141.385 0 256-114.615 256-256z" fill="#d1093a"/><path d="m309 146.406h-106l7.696-52.497h90.608z" fill="#333940"/><path d="m301.303 93.909h-45.493v52.497h53.19z" fill="#0d0e0f"/><path d="m375.307 380.345h-238.614c-31.121 0-56.349-25.229-56.349-56.349v-135.992c0-31.121 25.229-56.349 56.349-56.349h238.614c31.121 0 56.349 25.229 56.349 56.349v135.992c0 31.121-25.228 56.349-56.349 56.349z" fill="#414952"/><path d="m375.307 131.655h-119.497v248.691h119.498c31.121 0 56.349-25.229 56.349-56.349v-135.993c-.001-31.121-25.229-56.349-56.35-56.349z" fill="#23272b"/><path d="m430.478 149.323 22.592 6.083-22.592 6.083c-24.728 6.658-44.043 25.973-50.701 50.701l-6.083 22.592-6.083-22.592c-6.658-24.728-25.973-44.044-50.701-50.702l-22.592-6.083 22.592-6.083c24.728-6.658 44.043-25.973 50.701-50.701l6.083-22.592 6.083 22.592c6.657 24.729 25.973 44.044 50.701 50.702z" fill="#fff"/><path d="m430.478 149.323c-24.728-6.658-44.043-25.974-50.701-50.702l-6.083-22.592v158.753l6.083-22.592c6.658-24.728 25.974-44.043 50.701-50.701l22.592-6.083z" fill="#f0f0f0"/><circle cx="256" cy="256" fill="#707789" r="94.405"/><path d="m256 161.595c-.064 0-.127.002-.19.002v188.805c.064 0 .127.002.19.002 52.138 0 94.405-42.266 94.405-94.405 0-52.137-42.267-94.404-94.405-94.404z" fill="#555a66"/><circle cx="256" cy="256" fill="#333940" r="66.754"/><path d="m256 189.246c-.064 0-.127.005-.19.005v133.499c.064 0 .126.005.19.005 36.867 0 66.754-29.887 66.754-66.754s-29.887-66.755-66.754-66.755z" fill="#0d0e0f"/><path d="m103.098 312h58.497v35h-58.497z" fill="#555a66"/></svg>