<?xml version="1.0" encoding="utf-8"?>
<!-- Generator: Adobe Illustrator 21.0.2, SVG Export Plug-In . SVG Version: 6.00 Build 0)  -->
<svg version="1.1" id="Layer_1" xmlns="http://www.w3.org/2000/svg" xmlns:xlink="http://www.w3.org/1999/xlink" x="0px" y="0px"
	 viewBox="0 0 125 55" style="enable-background:new 0 0 125 55;" xml:space="preserve">
<style type="text/css">
	.st0{fill:none;}
	.st1{fill:#333333;}
	.st2{font-family:'ARDESTINE';}
	.st3{font-size:26.417px;}
	.st4{fill:#FF0000;}
</style>
<rect x="1" y="12.6" class="st0" width="30.7" height="28.2"/>
<text transform="matrix(0.8682 0 0 1 1.0005 34.1761)" class="st1 st2 st3">Zin</text>
<path class="st4" d="M48.9,42H36.8c-0.7,0-1.6-0.1-2.2-0.3c-0.5-0.1-1-0.4-1.4-0.8c-0.4-0.4-0.6-0.9-0.7-1.4
	c-0.2-0.6-0.2-1.8-0.2-2.4l0.1-13.1c0-0.7,0.1-1.4,0.2-2c0.1-0.6,0.4-1.1,0.7-1.4c0.4-0.4,0.9-0.6,1.4-0.8c0.6-0.2,1.3-0.2,2-0.2
	h8.8c0.7,0,1.4,0.1,2,0.2c0.5,0.1,1,0.4,1.4,0.8c0.4,0.4,0.6,0.9,0.7,1.4c0.2,0.6,0.2,1.4,0.2,2v3.8c0,0.7-0.1,1.4-0.2,2
	c-0.1,0.6-0.4,1.1-0.7,1.4c-0.4,0.4-0.9,0.6-1.4,0.8c-0.6,0.2-1.3,0.2-2,0.2h-3.8v-3h3.8c0.3,0,0.5,0,0.8-0.1c0.1,0,0.3-0.1,0.4-0.2
	c0.1-0.1,0.2-0.2,0.2-0.4c0.1-0.3,0.1-0.6,0.1-0.8v-3.8c0-0.3,0-0.6-0.1-0.8c0-0.1-0.1-0.3-0.2-0.4c-0.1-0.1-0.2-0.2-0.4-0.2
	c-0.3-0.1-0.5-0.1-0.8-0.1h-8.8c-0.3,0-0.5,0-0.8,0.1c-0.1,0-0.3,0.1-0.4,0.2c-0.1,0.1-0.2,0.3-0.2,0.4c-0.1,0.3-0.1,0.6-0.1,0.8
	v0.9l0.2,11.6V37c0,0.3,0,1,0.1,1.2c0,0.1,0.1,0.3,0.2,0.4c0.1,0.1,0.3,0.2,0.4,0.2c0.2,0.1,0.5,0.1,0.8,0.1H49
	c0.5-0.9,1.3-1.5,2.3-1.5c1.5,0,2.6,1.4,2.6,3s-1.2,3-2.6,3C50.3,43.5,49.4,42.9,48.9,42L48.9,42z M51.3,39.5c-0.5,0-0.9,0.5-0.9,1
	c0,0.6,0.4,1,0.9,1s0.9-0.5,0.9-1C52.2,40,51.7,39.5,51.3,39.5z"/>
<path class="st1" d="M37.2,17.5c-0.5,0.9-1.3,1.5-2.3,1.5c-1.5,0-2.6-1.4-2.6-3c0-1.7,1.2-3,2.6-3c1,0,1.8,0.6,2.3,1.6l12.3,0
	c0.7,0,1.4,0.1,2,0.2c0.5,0.1,1,0.4,1.4,0.8c0.4,0.4,0.6,0.9,0.7,1.4c0.2,0.6,0.2,1.6,0.2,2.3l0,13.2c0,0.7-0.1,1.4-0.2,2
	c-0.1,0.6-0.4,1.1-0.7,1.4c-0.4,0.4-0.9,0.6-1.4,0.8c-0.6,0.2-1.4,0.2-2,0.2h-8.8c-0.7,0-1.4-0.1-2-0.2c-0.5-0.1-1-0.4-1.4-0.8
	c-0.4-0.4-0.6-0.9-0.7-1.4c-0.2-0.6-0.2-1.4-0.2-2v-3.8c0-0.7,0.1-1.4,0.2-2c0.1-0.6,0.4-1.1,0.7-1.4c0.4-0.4,0.9-0.6,1.4-0.8
	c0.6-0.2,1.3-0.2,2-0.2h3.8v3h-3.8c-0.3,0-0.5,0-0.8,0.1c-0.1,0-0.3,0.1-0.4,0.2c-0.1,0.1-0.2,0.2-0.2,0.4c-0.1,0.3-0.1,0.6-0.1,0.8
	v3.8c0,0.3,0,0.6,0.1,0.8c0,0.1,0.1,0.3,0.2,0.4c0.1,0.1,0.2,0.2,0.4,0.2c0.3,0.1,0.5,0.1,0.8,0.1h8.8c0.3,0,0.5,0,0.8-0.1
	c0.1,0,0.3-0.1,0.4-0.2c0.1-0.1,0.2-0.3,0.2-0.4c0.1-0.3,0.1-0.6,0.1-0.8v-0.9l-0.2-11.6v-0.8c0-0.3,0-0.9-0.1-1.1
	c0-0.1-0.1-0.3-0.2-0.4c-0.1-0.1-0.3-0.2-0.4-0.2c-0.2-0.1-0.5-0.1-0.8-0.1L37.2,17.5L37.2,17.5z M35.6,16c0-0.4-0.3-0.8-0.7-0.8
	c-0.4,0-0.7,0.4-0.7,0.8c0,0.4,0.3,0.8,0.7,0.8C35.3,16.7,35.6,16.4,35.6,16z"/>
<g>
	<rect x="54.5" y="12.6" class="st0" width="68.5" height="28.2"/>
	<text transform="matrix(0.8682 0 0 1 54.5161 34.1761)" class="st4 st2 st3">Kodigo</text>
</g>
</svg>
