<?xml version="1.0" encoding="iso-8859-1"?>
<!-- Generator: Adobe Illustrator 21.0.0, SVG Export Plug-In . SVG Version: 6.00 Build 0)  -->
<svg version="1.1" id="Capa_1" xmlns="http://www.w3.org/2000/svg" xmlns:xlink="http://www.w3.org/1999/xlink" x="0px" y="0px"
	 viewBox="0 0 512 512" style="enable-background:new 0 0 512 512;" xml:space="preserve">
<circle style="fill:#FF432E;" cx="256" cy="256" r="256"/>
<path style="fill:#DB0404;" d="M511.844,264.511L389.333,142L122.667,410.167l99.622,99.622C233.321,511.24,244.571,512,256,512
	C394.535,512,507.352,401.954,511.844,264.511z"/>
<polygon style="fill:#FFFFFF;" points="311,63.667 122.667,63.667 122.667,410.167 389.333,410.167 389.333,142 "/>
<polygon style="fill:#F2F6FC;" points="389.333,142 311,63.667 255.571,63.667 255.571,410.167 389.333,410.167 "/>
<polygon style="fill:#DCE1EB;" points="311,142 389.333,142 311,63.667 "/>
<polygon style="fill:#4A7AFF;" points="358.333,218.071 312.072,248.305 312.072,211.576 150.982,211.576 150.982,338.468 
	312.072,338.468 312.072,301.74 358.333,331.973 "/>
<polygon style="fill:#2864F0;" points="312.072,248.305 312.072,211.576 255.571,211.576 255.571,338.468 312.072,338.468 
	312.072,301.74 358.333,331.973 358.333,218.071 "/>
<g>
	<circle style="fill:#87C7FF;" cx="179.79" cy="236.92" r="12.794"/>
	<circle style="fill:#87C7FF;" cx="215.54" cy="236.92" r="12.794"/>
</g>
<g>
</g>
<g>
</g>
<g>
</g>
<g>
</g>
<g>
</g>
<g>
</g>
<g>
</g>
<g>
</g>
<g>
</g>
<g>
</g>
<g>
</g>
<g>
</g>
<g>
</g>
<g>
</g>
<g>
</g>
</svg>
